<svg width="102" height="24" viewBox="0 0 102 24" fill="none" xmlns="http://www.w3.org/2000/svg">
<path d="M20.4603 6.53267e-05L17.0144 5.91748H3.13408C2.87139 5.51882 2.6713 5.04842 2.61926 4.51226C2.54447 3.73323 2.79344 2.91294 3.30064 2.18889C4.31177 0.859982 5.90805 6.53267e-05 7.70278 6.53267e-05H20.4603Z" fill="white"/>
<path d="M13.2032 23.25H13.2033L13.6444 23.2525L13.2032 23.25ZM15.5003 15.7108C15.499 15.7128 15.4978 15.7147 15.4965 15.7167C15.6343 15.7883 16.6743 16.348 17.3264 17.3374C17.5899 17.7372 17.7904 18.2069 17.8419 18.7434C17.9164 19.5224 17.6671 20.3419 17.1603 21.0673V21.0674C16.1488 22.3953 14.5527 23.2549 12.7582 23.2549H14.0821H14.0855C17.0055 23.2549 19.4024 20.9811 19.6045 18.1123L19.6068 17.3374L19.62 13.0796C19.62 11.9605 19.0205 10.9146 18.0547 10.3495L12.7854 7.26634L9.79669 12.3735L15.5003 15.7108Z" fill="white"/>
<path d="M4.96453 7.54478C4.96584 7.54282 4.96703 7.54086 4.96834 7.5389C4.83052 7.46727 3.79054 6.9076 3.13844 5.91824C2.87489 5.51838 2.67447 5.04874 2.62297 4.51215C2.5484 3.73323 2.7977 2.9137 3.30457 2.18834V2.18823C4.31603 0.860305 5.91208 0.000715256 7.7066 0.000715256H6.3827H6.37933C3.45938 0.000715256 1.06241 2.27445 0.860355 5.14335L0.858069 5.91824L0.844788 10.176C0.844788 11.2951 1.4443 12.341 2.41014 12.9061L7.67938 15.9893L10.6681 10.8821L4.96453 7.54478Z" fill="#00B88B"/>
<path d="M0 23.2554L3.44598 17.338H17.3263C17.589 17.7366 17.789 18.207 17.8411 18.7432C17.9159 19.5222 17.6669 20.3425 17.1597 21.0666C16.1486 22.3955 14.5523 23.2554 12.7576 23.2554H0Z" fill="#00B88B"/>
<path d="M30.8874 16.9563C29.5191 16.9563 28.3679 16.6545 27.4338 16.0509C26.4997 15.4341 25.8419 14.6009 25.4603 13.5512L27.789 12.1931C28.3285 13.5971 29.3876 14.2991 30.9664 14.2991C31.7294 14.2991 32.2886 14.1613 32.6438 13.8858C32.9991 13.6102 33.1767 13.2625 33.1767 12.8426C33.1767 12.3571 32.9596 11.9832 32.5254 11.7207C32.0913 11.4452 31.315 11.1499 30.1967 10.835C29.5783 10.6513 29.0521 10.4676 28.6179 10.2839C28.1969 10.1002 27.7693 9.85746 27.3351 9.55566C26.9141 9.24074 26.5918 8.84709 26.3681 8.37471C26.1445 7.90234 26.0326 7.35123 26.0326 6.72139C26.0326 5.47483 26.4734 4.48415 27.3549 3.74934C28.2495 3.00141 29.3218 2.62744 30.5717 2.62744C31.69 2.62744 32.6701 2.903 33.5122 3.4541C34.3673 3.99209 35.0318 4.74658 35.5054 5.71758L33.2161 7.03631C32.6636 5.85536 31.7821 5.26489 30.5717 5.26489C30.0059 5.26489 29.5586 5.3961 29.2297 5.65854C28.9139 5.90785 28.7561 6.23589 28.7561 6.64266C28.7561 7.07567 28.9337 7.42996 29.2889 7.70551C29.6573 7.96794 30.3546 8.25662 31.3808 8.57154C31.8018 8.70275 32.1176 8.80773 32.3281 8.88646C32.5517 8.95206 32.8478 9.0636 33.2161 9.22106C33.5977 9.3654 33.8871 9.50317 34.0845 9.63439C34.295 9.76561 34.5318 9.94275 34.7949 10.1658C35.0581 10.3889 35.2554 10.6185 35.387 10.8547C35.5317 11.0909 35.6501 11.3796 35.7422 11.7207C35.8475 12.0488 35.9001 12.4096 35.9001 12.8033C35.9001 14.0761 35.433 15.0864 34.4989 15.8344C33.5779 16.5823 32.3741 16.9563 30.8874 16.9563Z" fill="white"/>
<path d="M44.5376 6.83948H47.0834V16.6807H44.5376V15.5194C43.7746 16.4773 42.7023 16.9563 41.3209 16.9563C40.0052 16.9563 38.8737 16.4576 37.9265 15.4604C36.9923 14.45 36.5253 13.2166 36.5253 11.7601C36.5253 10.3036 36.9923 9.07672 37.9265 8.07948C38.8737 7.06911 40.0052 6.56393 41.3209 6.56393C42.7023 6.56393 43.7746 7.04287 44.5376 8.00075V6.83948ZM39.8407 13.7677C40.3539 14.2794 41.0051 14.5353 41.7945 14.5353C42.5839 14.5353 43.2351 14.2794 43.7483 13.7677C44.2745 13.2428 44.5376 12.5736 44.5376 11.7601C44.5376 10.9466 44.2745 10.2839 43.7483 9.77217C43.2351 9.2473 42.5839 8.98487 41.7945 8.98487C41.0051 8.98487 40.3539 9.2473 39.8407 9.77217C39.3276 10.2839 39.0711 10.9466 39.0711 11.7601C39.0711 12.5736 39.3276 13.2428 39.8407 13.7677Z" fill="white"/>
<path d="M56.1018 6.83948H58.6476V16.6807H56.1018V15.5194C55.3387 16.4773 54.2665 16.9563 52.885 16.9563C51.5694 16.9563 50.4379 16.4576 49.4906 15.4604C48.5565 14.45 48.0895 13.2166 48.0895 11.7601C48.0895 10.3036 48.5565 9.07672 49.4906 8.07948C50.4379 7.06911 51.5694 6.56393 52.885 6.56393C54.2665 6.56393 55.3387 7.04287 56.1018 8.00075V6.83948ZM51.4049 13.7677C51.918 14.2794 52.5693 14.5353 53.3587 14.5353C54.1481 14.5353 54.7993 14.2794 55.3124 13.7677C55.8387 13.2428 56.1018 12.5736 56.1018 11.7601C56.1018 10.9466 55.8387 10.2839 55.3124 9.77217C54.7993 9.2473 54.1481 8.98487 53.3587 8.98487C52.5693 8.98487 51.918 9.2473 51.4049 9.77217C50.8918 10.2839 50.6353 10.9466 50.6353 11.7601C50.6353 12.5736 50.8918 13.2428 51.4049 13.7677Z" fill="white"/>
<path d="M65.0018 16.9563C63.6335 16.9563 62.4823 16.6545 61.5482 16.0509C60.6141 15.4341 59.9562 14.6009 59.5747 13.5512L61.9034 12.1931C62.4428 13.5971 63.502 14.2991 65.0807 14.2991C65.8438 14.2991 66.403 14.1613 66.7582 13.8858C67.1134 13.6102 67.2911 13.2625 67.2911 12.8426C67.2911 12.3571 67.074 11.9832 66.6398 11.7207C66.2056 11.4452 65.4294 11.1499 64.3111 10.835C63.6927 10.6513 63.1665 10.4676 62.7323 10.2839C62.3113 10.1002 61.8837 9.85746 61.4495 9.55566C61.0285 9.24074 60.7062 8.84709 60.4825 8.37471C60.2589 7.90234 60.147 7.35123 60.147 6.72139C60.147 5.47483 60.5878 4.48415 61.4693 3.74934C62.3639 3.00141 63.4362 2.62744 64.686 2.62744C65.8044 2.62744 66.7845 2.903 67.6265 3.4541C68.4817 3.99209 69.1461 4.74658 69.6198 5.71758L67.3305 7.03631C66.7779 5.85536 65.8965 5.26489 64.686 5.26489C64.1203 5.26489 63.673 5.3961 63.3441 5.65854C63.0283 5.90785 62.8704 6.23589 62.8704 6.64266C62.8704 7.07567 63.048 7.42996 63.4033 7.70551C63.7717 7.96794 64.469 8.25662 65.4952 8.57154C65.9162 8.70275 66.2319 8.80773 66.4425 8.88646C66.6661 8.95206 66.9621 9.0636 67.3305 9.22106C67.7121 9.3654 68.0015 9.50317 68.1989 9.63439C68.4094 9.76561 68.6462 9.94275 68.9093 10.1658C69.1724 10.3889 69.3698 10.6185 69.5014 10.8547C69.6461 11.0909 69.7645 11.3796 69.8566 11.7207C69.9618 12.0488 70.0145 12.4096 70.0145 12.8033C70.0145 14.0761 69.5474 15.0864 68.6133 15.8344C67.6923 16.5823 66.4885 16.9563 65.0018 16.9563Z" fill="white"/>
<path d="M76.1324 2.903C77.3692 2.903 78.3954 3.30977 79.2111 4.12331C80.0268 4.93685 80.4346 5.95377 80.4346 7.17409C80.4346 8.3944 80.0268 9.41132 79.2111 10.2249C78.3954 11.0253 77.3692 11.4255 76.1324 11.4255H72.4815V16.6807H71.4355V2.903H76.1324ZM76.1324 10.4414C77.0797 10.4414 77.856 10.133 78.4612 9.51629C79.0795 8.89958 79.3887 8.11884 79.3887 7.17409C79.3887 6.21621 79.0795 5.42891 78.4612 4.81219C77.856 4.19548 77.0797 3.88712 76.1324 3.88712H72.4815V10.4414H76.1324Z" fill="white"/>
<path d="M89.9247 6.83948H90.9311V16.6807H89.9247V14.4566C89.5037 15.2176 88.9248 15.8147 88.188 16.2477C87.4512 16.6807 86.6158 16.8972 85.6817 16.8972C84.2739 16.8972 83.0701 16.4051 82.0702 15.421C81.0703 14.4238 80.5703 13.2035 80.5703 11.7601C80.5703 10.3167 81.0703 9.10296 82.0702 8.11884C83.0701 7.1216 84.2739 6.62298 85.6817 6.62298C86.6158 6.62298 87.4512 6.83948 88.188 7.2725C88.9248 7.70551 89.5037 8.30254 89.9247 9.0636V6.83948ZM82.7806 14.7321C83.5963 15.5457 84.5897 15.9525 85.7606 15.9525C86.9315 15.9525 87.9183 15.5457 88.7208 14.7321C89.5234 13.9186 89.9247 12.9279 89.9247 11.7601C89.9247 10.5923 89.5234 9.60159 88.7208 8.78804C87.9183 7.9745 86.9315 7.56773 85.7606 7.56773C84.5897 7.56773 83.5963 7.9745 82.7806 8.78804C81.9781 9.60159 81.5768 10.5923 81.5768 11.7601C81.5768 12.9279 81.9781 13.9186 82.7806 14.7321Z" fill="white"/>
<path d="M100.395 6.83948H101.46L97.1976 17.5861C96.816 18.5571 96.2766 19.3181 95.5793 19.8693C94.882 20.4335 94.1189 20.6828 93.2901 20.6172V19.6921C93.9216 19.7446 94.4873 19.5609 94.9873 19.141C95.5004 18.7342 95.9148 18.1503 96.2306 17.3893L96.4477 16.8578L91.9086 6.83948H92.9743L96.9608 15.5982L100.395 6.83948Z" fill="white"/>
</svg>
